# xmcd
#
# Track frame offsets:
# 150
# 12347
# 26632
# 38485
# 53307
# 67305
# 81257
# 93940
# 106932
# 116847
# 128852
# 143957
# 157212
# 172040
# 187130
# 198685
# 213372
# 227127
# 239605
# 252377
#
# Disc length: 3546 seconds
#
#
# Revision: 2
# Processed by: cddbd v1.5.2PL0 Copyright (c) Steve Scherf et al.
# Submitted via: FreeRIP 2.945 
#
DISCID=280dd814
DTITLE=Muddy Waters - I Can't Be Satisfied
DYEAR=2006
DGENRE=Blues
TTITLE0=I Can't Be Satisfied
TTITLE1=I Feel Like Going Home
TTITLE2=You're Gonna Miss Me
TTITLE3=Streamline Woman
TTITLE4=Screamin' and Cryin'
TTITLE5=Rollin' Stone
TTITLE6=Hello Little Girl
TTITLE7=Louisiana Blues
TTITLE8=Evan's Shuffle
TTITLE9=Long Distance Call
TTITLE10=Honey Bee
TTITLE11=She Moves Me
TTITLE12=Still a Fool
TTITLE13=Standing Around and Crying
TTITLE14=She's All Right
TTITLE15=Turn The Lamp Down Low
TTITLE16=I Want You To Love Me
TTITLE17=I'm Your Hoochie Coochie Man
TTITLE18=I Just Want To Make Love To You
TTITLE19=I'm Ready
EXTD=2006 Blue Label
EXTT0=
EXTT1=
EXTT2=
EXTT3=
EXTT4=
EXTT5=
EXTT6=
EXTT7=
EXTT8=
EXTT9=
EXTT10=
EXTT11=
EXTT12=
EXTT13=
EXTT14=
EXTT15=
EXTT16=
EXTT17=
EXTT18=
EXTT19=
PLAYORDER=
